<svg width="17" height="19" viewBox="0 0 17 19" fill="none" xmlns="http://www.w3.org/2000/svg">
<path d="M15.75 4.06667C12.975 3.79167 10.1833 3.65 7.4 3.65C5.75 3.65 4.1 3.73333 2.45 3.9L0.75 4.06667M5.33333 3.69358L5.51667 2.13333C5.65 1.34167 5.75 0.75 7.15833 0.75H9.34167C10.75 0.75 10.8583 1.375 10.9833 2.14167L11.1667 3.73559M13.9583 6.7L13.4167 15.0917C13.325 16.4 13.25 17.4167 10.925 17.4167H5.575C3.25 17.4167 3.175 16.4 3.08333 15.0917L2.54167 6.7M6.85833 12.8333H9.63333M6.16667 9.5H10.3333" stroke="currentColor" stroke-width="1.5" stroke-linecap="round" stroke-linejoin="round"/>
</svg>
