<svg width="28" height="27" viewBox="0 0 28 27" fill="none" xmlns="http://www.w3.org/2000/svg">
<path d="M28 0C28 0 22.6778 15.0728 20.8117 19.1884C18.9454 23.304 15.7625 27 10.356 27C4.63655 27 0 22.3373 0 16.5857C1.02448e-05 11.9199 3.05123 7.9708 7.25653 6.64605L9.94671 12.7556C8.02376 12.961 6.52572 14.5974 6.52572 16.5857C6.52572 18.713 8.24055 20.4376 10.356 20.4376C12.4714 20.4376 14.1371 18.713 14.1371 16.5857C14.1371 15.587 13.8194 14.704 13.477 13.9465C13.1348 13.1893 7.36737 0.0103024 7.36286 0H28Z" fill="#FFBE0C"/>
</svg>
